<?xml version="1.0" encoding="utf-8"?>
<!-- Generator: Adobe Illustrator 25.2.3, SVG Export Plug-In . SVG Version: 6.00 Build 0)  -->
<svg version="1.1" id="Capa_1" xmlns="http://www.w3.org/2000/svg" xmlns:xlink="http://www.w3.org/1999/xlink" x="0px" y="0px"
	 viewBox="0 0 141.73 141.73" style="enable-background:new 0 0 141.73 141.73;" xml:space="preserve">
<style type="text/css">
	.st0{fill:#E62928;}
	.st1{fill:#FFFFFF;}
	.st2{fill:#3056A3;}
</style>
<g>
	<polygon class="st0" points="109.43,109.06 109.42,108.73 109.42,65.31 103.32,65.42 103.21,47.24 97.9,47.24 97.79,41.4 
		92.27,41.4 92.27,35.78 81.11,35.67 80.89,32.92 58.36,32.92 58.26,35.56 47.64,35.67 47.64,41.29 41.79,41.18 41.79,46.91 
		35.73,46.91 35.62,64.54 31.4,64.43 31.5,108.95 35.73,108.95 35.75,104.32 41.69,104.32 41.69,98.04 47.68,98 47.68,103.88 
		53.31,103.95 53.38,109.17 63.85,109.24 63.85,98 74.83,97.93 74.76,109.17 87.39,109.24 87.47,103.58 92.59,103.58 92.54,97.93 
		97.74,97.93 97.79,103.55 103.21,103.44 103.21,109.11 	"/>
	<g>
		<polygon class="st1" points="92.92,52.74 86.64,52.74 86.64,47.32 75.15,47.32 75.15,52.74 70.17,52.74 70.17,69.31 75.15,69.31 
			75.15,75.16 86.64,75.16 86.64,69.31 92.92,69.31 		"/>
	</g>
	<g>
		<polygon class="st1" points="59.12,53.11 52.84,53.11 52.84,47.75 41.36,47.75 41.36,53.11 36.38,53.11 36.38,69.51 41.36,69.51 
			41.36,75.3 52.84,75.3 52.84,69.51 59.12,69.51 		"/>
	</g>
	<rect x="70.17" y="58.98" class="st2" width="10.83" height="10.29"/>
	<rect x="36.38" y="59.3" class="st2" width="10.83" height="10.18"/>
</g>
</svg>
